<?xml version="1.0" encoding="UTF-8" standalone="no"?>
<!-- Created with Inkscape (http://www.inkscape.org/) -->

<svg
   xmlns:dc="http://purl.org/dc/elements/1.1/"
   xmlns:cc="http://creativecommons.org/ns#"
   xmlns:rdf="http://www.w3.org/1999/02/22-rdf-syntax-ns#"
   xmlns:svg="http://www.w3.org/2000/svg"
   xmlns="http://www.w3.org/2000/svg"
   xmlns:sodipodi="http://sodipodi.sourceforge.net/DTD/sodipodi-0.dtd"
   xmlns:inkscape="http://www.inkscape.org/namespaces/inkscape"
   width="46.162685"
   height="104.18656"
   id="svg40886"
   version="1.1"
   inkscape:version="0.48.5 r10040"
   sodipodi:docname="New document 84">
  <defs
     id="defs40888" />
  <sodipodi:namedview
     id="base"
     pagecolor="#ffffff"
     bordercolor="#666666"
     borderopacity="1.0"
     inkscape:pageopacity="0.0"
     inkscape:pageshadow="2"
     inkscape:zoom="0.35"
     inkscape:cx="-90.49079"
     inkscape:cy="846.38782"
     inkscape:document-units="px"
     inkscape:current-layer="layer1"
     showgrid="false"
     fit-margin-top="0"
     fit-margin-left="0"
     fit-margin-right="0"
     fit-margin-bottom="0"
     inkscape:window-width="1366"
     inkscape:window-height="766"
     inkscape:window-x="0"
     inkscape:window-y="0"
     inkscape:window-maximized="0" />
  <metadata
     id="metadata40891">
    <rdf:RDF>
      <cc:Work
         rdf:about="">
        <dc:format>image/svg+xml</dc:format>
        <dc:type
           rdf:resource="http://purl.org/dc/dcmitype/StillImage" />
        <dc:title></dc:title>
      </cc:Work>
    </rdf:RDF>
  </metadata>
  <g
     inkscape:label="Layer 1"
     inkscape:groupmode="layer"
     id="layer1"
     transform="translate(-465.49079,-1274.5634)">
    <path
       inkscape:connector-curvature="0"
       id="path3134"
       d="m 476.14605,1277.7056 c 1.09534,-4.7606 8.4735,-3.5494 9.82285,0.4652 3.02874,10.8139 4.86119,21.924 6.55589,33.0201 1.781,-0.2481 3.83104,-0.8036 4.27842,-2.8312 2.90658,-8.4036 3.74068,-17.3166 5.0374,-26.0459 0.79518,-4.0718 7.23454,-5.3031 8.69062,-1.0717 2.2199,7.5582 0.37103,15.5287 -0.37433,23.1749 -5.68587,15.8016 -1.66267,32.7848 -4.29704,49.0345 -0.29493,2.6212 -2.0834,4.6694 -3.20863,6.9736 -1.19798,4.7445 -0.72074,9.7178 -0.43914,14.5618 -3.41024,1.3108 -6.75449,2.949 -10.34798,3.6911 -6.15541,-0.034 -12.25493,-1.0556 -18.38247,-1.5371 -0.50416,-4.127 -0.25786,-8.266 -0.18284,-12.3888 0.25986,-3.7902 -3.14082,-6.306 -3.8661,-9.8124 -2.22299,-8.3537 -5.46534,-17.181 -2.98637,-25.8449 0.69906,-3.0235 2.96423,-5.1729 5.21198,-7.1126 0.22923,-2.9711 0.177,-6.7378 3.5203,-7.9823 -0.61666,2.0556 -1.40168,4.0848 -1.93561,6.1939 1.41874,-2.0215 2.89411,-4.1953 2.74491,-6.7715 1.73209,0.063 3.46543,0.161 5.20002,0.2923 -0.38543,-5.9572 -2.55222,-11.6472 -2.58862,-17.6283 -0.0451,-6.2283 -2.4957,-12.1773 -2.45326,-18.3807 z"
       style="fill:none;stroke:#171717;stroke-width:0.125;stroke-linecap:butt;stroke-linejoin:miter;stroke-miterlimit:10" />
    <path
       inkscape:connector-curvature="0"
       id="path3136"
       d="m 476.14605,1277.7056 c 1.09534,-4.7606 8.4735,-3.5494 9.82285,0.4652 3.02874,10.8139 4.86119,21.924 6.55589,33.0201 1.781,-0.2481 3.83104,-0.8036 4.27842,-2.8312 2.90658,-8.4036 3.74068,-17.3166 5.0374,-26.0459 0.79518,-4.0718 7.23454,-5.3031 8.69062,-1.0717 2.2199,7.5582 0.37103,15.5287 -0.37433,23.1749 -5.68587,15.8016 -1.66267,32.7848 -4.29704,49.0345 -0.29493,2.6212 -2.0834,4.6694 -3.20863,6.9736 -1.19798,4.7445 -0.72074,9.7178 -0.43914,14.5618 -3.41024,1.3108 -6.75449,2.949 -10.34798,3.6911 -6.15541,-0.034 -12.25493,-1.0556 -18.38247,-1.5371 -0.50416,-4.127 -0.25786,-8.266 -0.18284,-12.3888 0.25986,-3.7902 -3.14082,-6.306 -3.8661,-9.8124 -2.22299,-8.3537 -5.46534,-17.181 -2.98637,-25.8449 0.69906,-3.0235 2.96423,-5.1729 5.21198,-7.1126 0.22923,-2.9711 0.177,-6.7378 3.5203,-7.9823 -0.61666,2.0556 -1.40168,4.0848 -1.93561,6.1939 1.41874,-2.0215 2.89411,-4.1953 2.74491,-6.7715 1.73209,0.063 3.46543,0.161 5.20002,0.2923 -0.38543,-5.9572 -2.55222,-11.6472 -2.58862,-17.6283 -0.0451,-6.2283 -2.4957,-12.1773 -2.45326,-18.3807 z"
       style="fill:#171717;fill-rule:nonzero;stroke:none" />
    <path
       inkscape:connector-curvature="0"
       id="path3170"
       d="m 478.49284,1276.2133 c 1.60235,0.024 3.58751,-0.6004 4.72202,0.9667 3.09029,3.3709 3.00755,8.2839 3.71993,12.5511 -2.45816,0.1905 -4.92044,0.2892 -7.3827,0.3185 -1.29128,-4.4976 -2.54845,-9.2178 -1.05925,-13.8363 z"
       style="fill:none;stroke:#ffffff;stroke-width:0.125;stroke-linecap:butt;stroke-linejoin:miter;stroke-miterlimit:10" />
    <path
       inkscape:connector-curvature="0"
       id="path3172"
       d="m 478.49284,1276.2133 c 1.60235,0.024 3.58751,-0.6004 4.72202,0.9667 3.09029,3.3709 3.00755,8.2839 3.71993,12.5511 -2.45816,0.1905 -4.92044,0.2892 -7.3827,0.3185 -1.29128,-4.4976 -2.54845,-9.2178 -1.05925,-13.8363 z"
       style="fill:#ffffff;fill-rule:nonzero;stroke:none" />
    <path
       inkscape:connector-curvature="0"
       id="path3206"
       d="m 502.09246,1290.2016 c 1.00065,-3.3611 -0.45148,-10.2386 4.67103,-10.2112 4.97934,1.7141 2.34699,8.1134 2.4607,12.0028 -0.44628,0.2467 -1.3388,0.7401 -1.78506,0.9867 3.93222,1.3512 0.7505,6.6069 0.64278,9.6455 -2.64335,-0.1078 -5.14548,-0.9085 -7.50397,-2.0496 0.34384,-2.5998 0.93017,-5.1464 1.67965,-7.6399 0.9411,-0.255 2.82335,-0.765 3.76447,-1.0199 -1.30671,-0.5982 -2.61658,-1.1696 -3.9296,-1.7144 z"
       style="fill:none;stroke:#ffffff;stroke-width:0.125;stroke-linecap:butt;stroke-linejoin:miter;stroke-miterlimit:10" />
    <path
       inkscape:connector-curvature="0"
       id="path3208"
       d="m 502.09246,1290.2016 c 1.00065,-3.3611 -0.45148,-10.2386 4.67103,-10.2112 4.97934,1.7141 2.34699,8.1134 2.4607,12.0028 -0.44628,0.2467 -1.3388,0.7401 -1.78506,0.9867 3.93222,1.3512 0.7505,6.6069 0.64278,9.6455 -2.64335,-0.1078 -5.14548,-0.9085 -7.50397,-2.0496 0.34384,-2.5998 0.93017,-5.1464 1.67965,-7.6399 0.9411,-0.255 2.82335,-0.765 3.76447,-1.0199 -1.30671,-0.5982 -2.61658,-1.1696 -3.9296,-1.7144 z"
       style="fill:#ffffff;fill-rule:nonzero;stroke:none" />
    <path
       inkscape:connector-curvature="0"
       id="path3278"
       d="m 480.43026,1290.7934 c 2.44415,0.076 4.88635,0.2599 7.3218,0.5337 1.2957,6.4233 1.89457,12.9673 2.75408,19.4679 -2.41621,1.0321 -4.84814,2.0413 -7.3563,2.8439 -0.97486,-4.0174 -1.76529,-8.0695 -2.42635,-12.1362 1.71401,-0.3706 3.42387,-0.7552 5.1296,-1.1541 -1.67255,-0.4779 -3.36968,-0.8492 -5.07163,-1.1485 -0.61225,-2.7751 -1.59975,-5.6614 -0.3512,-8.4067 z"
       style="fill:none;stroke:#ffffff;stroke-width:0.125;stroke-linecap:butt;stroke-linejoin:miter;stroke-miterlimit:10" />
    <path
       inkscape:connector-curvature="0"
       id="path3280"
       d="m 480.43026,1290.7934 c 2.44415,0.076 4.88635,0.2599 7.3218,0.5337 1.2957,6.4233 1.89457,12.9673 2.75408,19.4679 -2.41621,1.0321 -4.84814,2.0413 -7.3563,2.8439 -0.97486,-4.0174 -1.76529,-8.0695 -2.42635,-12.1362 1.71401,-0.3706 3.42387,-0.7552 5.1296,-1.1541 -1.67255,-0.4779 -3.36968,-0.8492 -5.07163,-1.1485 -0.61225,-2.7751 -1.59975,-5.6614 -0.3512,-8.4067 z"
       style="fill:#ffffff;fill-rule:nonzero;stroke:none" />
    <path
       inkscape:connector-curvature="0"
       id="path3342"
       d="m 500.40486,1302.2443 c 2.55722,0.5565 5.11937,1.0985 7.68294,1.6634 -0.33679,3.6001 -1.28365,7.1024 -2.2427,10.5916 -2.71792,-1.3896 -5.57164,-2.458 -8.48507,-3.3257 0.94918,-3.0072 1.92145,-5.9979 3.04483,-8.9293 z"
       style="fill:none;stroke:#ffffff;stroke-width:0.125;stroke-linecap:butt;stroke-linejoin:miter;stroke-miterlimit:10" />
    <path
       inkscape:connector-curvature="0"
       id="path3344"
       d="m 500.40486,1302.2443 c 2.55722,0.5565 5.11937,1.0985 7.68294,1.6634 -0.33679,3.6001 -1.28365,7.1024 -2.2427,10.5916 -2.71792,-1.3896 -5.57164,-2.458 -8.48507,-3.3257 0.94918,-3.0072 1.92145,-5.9979 3.04483,-8.9293 z"
       style="fill:#ffffff;fill-rule:nonzero;stroke:none" />
    <path
       inkscape:connector-curvature="0"
       id="path3454"
       d="m 483.13796,1315.7013 c 3.81002,-2.0367 8.15195,-2.5558 12.34634,-3.2653 3.35506,1.0439 7.2562,1.4435 9.86915,4.0266 0.44644,5.7226 -0.43014,11.4663 -0.44574,17.209 -1.50835,-1.2458 -3.00161,-2.5036 -4.50233,-3.7324 0.68927,-1.2707 1.36831,-2.5338 2.03715,-3.7893 -3.45244,1.1448 -6.18954,-0.6312 -8.41457,-3.1176 2.3572,-2.6039 6.06629,-1.9416 9.16905,-2.7193 -3.30223,-0.5719 -6.58457,0.4749 -9.88403,0.3077 -3.67793,-0.9471 -7.26339,-2.4379 -10.17502,-4.9194 z"
       style="fill:none;stroke:#ffffff;stroke-width:0.125;stroke-linecap:butt;stroke-linejoin:miter;stroke-miterlimit:10" />
    <path
       inkscape:connector-curvature="0"
       id="path3456"
       d="m 483.13796,1315.7013 c 3.81002,-2.0367 8.15195,-2.5558 12.34634,-3.2653 3.35506,1.0439 7.2562,1.4435 9.86915,4.0266 0.44644,5.7226 -0.43014,11.4663 -0.44574,17.209 -1.50835,-1.2458 -3.00161,-2.5036 -4.50233,-3.7324 0.68927,-1.2707 1.36831,-2.5338 2.03715,-3.7893 -3.45244,1.1448 -6.18954,-0.6312 -8.41457,-3.1176 2.3572,-2.6039 6.06629,-1.9416 9.16905,-2.7193 -3.30223,-0.5719 -6.58457,0.4749 -9.88403,0.3077 -3.67793,-0.9471 -7.26339,-2.4379 -10.17502,-4.9194 z"
       style="fill:#ffffff;fill-rule:nonzero;stroke:none" />
    <path
       inkscape:connector-curvature="0"
       id="path3502"
       d="m 478.44543,1316.2292 c 1.36247,0.6751 2.70176,1.4078 4.0253,2.1927 -0.2296,0.9492 -0.6888,2.8476 -0.9184,3.7968 -1.3601,-0.4375 -2.71525,-0.869 -4.06544,-1.2945 0.2868,-1.5853 0.60632,-3.1503 0.95854,-4.695 z"
       style="fill:none;stroke:#ffffff;stroke-width:0.125;stroke-linecap:butt;stroke-linejoin:miter;stroke-miterlimit:10" />
    <path
       inkscape:connector-curvature="0"
       id="path3504"
       d="m 478.44543,1316.2292 c 1.36247,0.6751 2.70176,1.4078 4.0253,2.1927 -0.2296,0.9492 -0.6888,2.8476 -0.9184,3.7968 -1.3601,-0.4375 -2.71525,-0.869 -4.06544,-1.2945 0.2868,-1.5853 0.60632,-3.1503 0.95854,-4.695 z"
       style="fill:#ffffff;fill-rule:nonzero;stroke:none" />
    <path
       inkscape:connector-curvature="0"
       id="path3562"
       d="m 475.41695,1319.8332 c 1.90714,1.8005 4.09514,4.3319 7.05961,3.3868 1.15237,-1.1522 2.06338,-2.4981 3.04452,-3.766 1.49961,0.5978 3.00473,1.2018 4.51537,1.8119 -0.41294,2.0602 -2.06089,4.3194 -0.42312,6.2591 0.29831,-1.0429 0.89493,-3.1287 1.19322,-4.1716 4.92025,2.9416 8.2638,7.797 12.44445,11.637 -0.30177,1.4331 -0.6268,2.8907 -0.95735,4.3487 3.41443,4.0088 2.08696,10.0994 1.19683,14.8589 -1.6647,6.0531 -9.09098,6.2296 -13.88388,4.1169 -1.83825,-1.7221 -3.16986,-3.9725 -3.78484,-6.3973 -1.20101,-4.2617 1.61195,-8.1302 2.79479,-12.0454 1.85571,1.3549 3.2554,4.8506 5.6072,4.5666 0.32356,-2.5581 -0.52509,-5.1276 -0.62954,-7.6853 -3.70172,-2.0307 -6.53902,-5.3338 -10.46781,-6.9792 -3.98867,-1.9036 -7.58382,-5.2272 -7.70945,-9.9411 z"
       style="fill:none;stroke:#ffffff;stroke-width:0.125;stroke-linecap:butt;stroke-linejoin:miter;stroke-miterlimit:10" />
    <path
       inkscape:connector-curvature="0"
       id="path3564"
       d="m 475.41695,1319.8332 c 1.90714,1.8005 4.09514,4.3319 7.05961,3.3868 1.15237,-1.1522 2.06338,-2.4981 3.04452,-3.766 1.49961,0.5978 3.00473,1.2018 4.51537,1.8119 -0.41294,2.0602 -2.06089,4.3194 -0.42312,6.2591 0.29831,-1.0429 0.89493,-3.1287 1.19322,-4.1716 4.92025,2.9416 8.2638,7.797 12.44445,11.637 -0.30177,1.4331 -0.6268,2.8907 -0.95735,4.3487 3.41443,4.0088 2.08696,10.0994 1.19683,14.8589 -1.6647,6.0531 -9.09098,6.2296 -13.88388,4.1169 -1.83825,-1.7221 -3.16986,-3.9725 -3.78484,-6.3973 -1.20101,-4.2617 1.61195,-8.1302 2.79479,-12.0454 1.85571,1.3549 3.2554,4.8506 5.6072,4.5666 0.32356,-2.5581 -0.52509,-5.1276 -0.62954,-7.6853 -3.70172,-2.0307 -6.53902,-5.3338 -10.46781,-6.9792 -3.98867,-1.9036 -7.58382,-5.2272 -7.70945,-9.9411 z"
       style="fill:#ffffff;fill-rule:nonzero;stroke:none" />
    <path
       inkscape:connector-curvature="0"
       id="path3606"
       d="m 467.38455,1330.2686 c 1.63818,-2.4503 3.8037,-4.4899 5.7539,-6.6712 2.93168,2.5417 4.39121,6.1762 5.68303,9.7401 -1.18723,0.8032 -2.36218,1.6351 -3.52487,2.4956 1.93084,-0.1112 3.86719,-0.1977 5.80283,-0.056 -0.31331,-1.644 -0.61126,-3.2754 -0.89386,-4.8943 1.70288,0.8704 3.39701,1.7899 5.14905,2.6022 -0.85517,1.6011 -1.65853,3.2287 -2.36214,4.9244 -0.59376,-0.4548 -1.78124,-1.3645 -2.375,-1.8193 -1.24308,1.8745 -2.44539,3.791 -3.52325,5.7855 -2.56978,-4.1792 -4.92326,-8.7095 -9.13689,-11.4892 3.6e-4,2.1859 1.55078,3.7533 2.7907,5.4011 -0.93861,-0.124 -2.8158,-0.372 -3.75441,-0.496 0.11225,-1.8592 0.10362,-3.7097 0.39091,-5.5226 z"
       style="fill:none;stroke:#ffffff;stroke-width:0.125;stroke-linecap:butt;stroke-linejoin:miter;stroke-miterlimit:10" />
    <path
       inkscape:connector-curvature="0"
       id="path3608"
       d="m 467.38455,1330.2686 c 1.63818,-2.4503 3.8037,-4.4899 5.7539,-6.6712 2.93168,2.5417 4.39121,6.1762 5.68303,9.7401 -1.18723,0.8032 -2.36218,1.6351 -3.52487,2.4956 1.93084,-0.1112 3.86719,-0.1977 5.80283,-0.056 -0.31331,-1.644 -0.61126,-3.2754 -0.89386,-4.8943 1.70288,0.8704 3.39701,1.7899 5.14905,2.6022 -0.85517,1.6011 -1.65853,3.2287 -2.36214,4.9244 -0.59376,-0.4548 -1.78124,-1.3645 -2.375,-1.8193 -1.24308,1.8745 -2.44539,3.791 -3.52325,5.7855 -2.56978,-4.1792 -4.92326,-8.7095 -9.13689,-11.4892 3.6e-4,2.1859 1.55078,3.7533 2.7907,5.4011 -0.93861,-0.124 -2.8158,-0.372 -3.75441,-0.496 0.11225,-1.8592 0.10362,-3.7097 0.39091,-5.5226 z"
       style="fill:#ffffff;fill-rule:nonzero;stroke:none" />
    <path
       inkscape:connector-curvature="0"
       id="path3682"
       d="m 467.66459,1337.1241 c 6.28439,-0.9091 6.40939,7.5722 12.40586,7.5387 0.005,0.9878 0.0165,2.9634 0.022,3.9512 1.3645,-2.0774 1.5821,-5.5623 4.46818,-6.0719 -1.20158,5.7931 -0.91353,12.175 2.7371,17.0924 -3.05609,0.9799 -5.72703,3.8332 -9.13784,2.9454 -2.61643,-0.1524 -5.66445,-1.3316 -6.17216,-4.2198 -1.81033,-6.9511 -5.19052,-13.9307 -4.32313,-21.236 z"
       style="fill:none;stroke:#ffffff;stroke-width:0.125;stroke-linecap:butt;stroke-linejoin:miter;stroke-miterlimit:10" />
    <path
       inkscape:connector-curvature="0"
       id="path3684"
       d="m 467.66459,1337.1241 c 6.28439,-0.9091 6.40939,7.5722 12.40586,7.5387 0.005,0.9878 0.0165,2.9634 0.022,3.9512 1.3645,-2.0774 1.5821,-5.5623 4.46818,-6.0719 -1.20158,5.7931 -0.91353,12.175 2.7371,17.0924 -3.05609,0.9799 -5.72703,3.8332 -9.13784,2.9454 -2.61643,-0.1524 -5.66445,-1.3316 -6.17216,-4.2198 -1.81033,-6.9511 -5.19052,-13.9307 -4.32313,-21.236 z"
       style="fill:#ffffff;fill-rule:nonzero;stroke:none" />
    <path
       inkscape:connector-curvature="0"
       id="path3686"
       d="m 485.7506,1337.4923 c 0.80975,0.7946 0.80975,0.7946 0,0 z"
       style="fill:none;stroke:#ffffff;stroke-width:0.125;stroke-linecap:butt;stroke-linejoin:miter;stroke-miterlimit:10" />
    <path
       inkscape:connector-curvature="0"
       id="path3688"
       d="m 485.7506,1337.4923 c 0.80975,0.7946 0.80975,0.7946 0,0 z"
       style="fill:#ffffff;fill-rule:nonzero;stroke:none" />
    <path
       inkscape:connector-curvature="0"
       id="path3734"
       d="m 489.01355,1363.8943 c 2.92858,-1.3017 6.12093,-1.6126 9.29124,-1.6864 -0.105,3.8681 0.32479,7.7915 -0.0799,11.6522 -2.419,2.2643 -5.75439,3.0883 -8.96048,3.4536 -0.16792,-4.4786 -0.2239,-8.9529 -0.25088,-13.4194 z"
       style="fill:none;stroke:#ffffff;stroke-width:0.125;stroke-linecap:butt;stroke-linejoin:miter;stroke-miterlimit:10" />
    <path
       inkscape:connector-curvature="0"
       id="path3736"
       d="m 489.01355,1363.8943 c 2.92858,-1.3017 6.12093,-1.6126 9.29124,-1.6864 -0.105,3.8681 0.32479,7.7915 -0.0799,11.6522 -2.419,2.2643 -5.75439,3.0883 -8.96048,3.4536 -0.16792,-4.4786 -0.2239,-8.9529 -0.25088,-13.4194 z"
       style="fill:#ffffff;fill-rule:nonzero;stroke:none" />
    <path
       inkscape:connector-curvature="0"
       id="path3742"
       d="m 486.41768,1362.7241 1.87061,0.5021 c 0.0549,4.3401 1.17647,9.498 -1.01103,13.3722 -0.87037,-4.5758 -1.08302,-9.2429 -0.85958,-13.8743 z"
       style="fill:none;stroke:#ffffff;stroke-width:0.125;stroke-linecap:butt;stroke-linejoin:miter;stroke-miterlimit:10" />
    <path
       inkscape:connector-curvature="0"
       id="path3744"
       d="m 486.41768,1362.7241 1.87061,0.5021 c 0.0549,4.3401 1.17647,9.498 -1.01103,13.3722 -0.87037,-4.5758 -1.08302,-9.2429 -0.85958,-13.8743 z"
       style="fill:#ffffff;fill-rule:nonzero;stroke:none" />
    <path
       inkscape:connector-curvature="0"
       id="path3754"
       d="m 475.3327,1364.9123 c 3.10225,0.2058 6.21169,0.1132 9.31659,-0.047 0.43071,3.9965 0.59269,8.0239 1.09162,12.0293 -3.31146,-0.1856 -6.60933,-0.5341 -9.88205,-1.0399 -0.4334,-3.6403 -0.63823,-7.2944 -0.52616,-10.9423 z"
       style="fill:none;stroke:#ffffff;stroke-width:0.125;stroke-linecap:butt;stroke-linejoin:miter;stroke-miterlimit:10" />
    <path
       inkscape:connector-curvature="0"
       id="path3756"
       d="m 475.3327,1364.9123 c 3.10225,0.2058 6.21169,0.1132 9.31659,-0.047 0.43071,3.9965 0.59269,8.0239 1.09162,12.0293 -3.31146,-0.1856 -6.60933,-0.5341 -9.88205,-1.0399 -0.4334,-3.6403 -0.63823,-7.2944 -0.52616,-10.9423 z"
       style="fill:#ffffff;fill-rule:nonzero;stroke:none" />
  </g>
</svg>
